<svg version="1.1" id="Layer_1" xmlns="http://www.w3.org/2000/svg" xmlns:xlink="http://www.w3.org/1999/xlink" x="0px" y="0px" viewBox="0 0 9.038 11.488" enable-background="new 0 0 9.038 11.488" xml:space="preserve">
<polygon fill="#929293" points="5.048,9.622 3.989,9.622 4.176,1.968 4.861,1.968 "/>
<g>
	<defs>
		<rect id="SVGID_1_" y="0" width="9.038" height="11.488"/>
	</defs>
	<clipPath id="SVGID_2_">
		<use xlink:href="#SVGID_1_"  overflow="visible"/>
	</clipPath>
	<path clip-path="url(#SVGID_2_)" fill="#929293" d="M4.52,0C3.892,0,3.383,0.508,3.383,1.135c0,0.627,0.509,1.136,1.136,1.136
		c0.627,0,1.135-0.509,1.135-1.136C5.654,0.508,5.146,0,4.52,0 M4.52,1.779c-0.355,0-0.645-0.289-0.645-0.644
		c0-0.356,0.289-0.644,0.645-0.644c0.354,0,0.644,0.288,0.644,0.644C5.163,1.491,4.874,1.779,4.52,1.779"/>
	<path clip-path="url(#SVGID_2_)" fill="#929293" d="M6.393,3.562c0,0.073-0.041,0.133-0.092,0.133H2.738
		c-0.052,0-0.093-0.06-0.093-0.133V3.297c0-0.073,0.041-0.133,0.093-0.133h3.562c0.051,0,0.092,0.06,0.092,0.133V3.562z"/>
	<path clip-path="url(#SVGID_2_)" fill="#929293" d="M7.037,3.429c0,0.28-0.229,0.507-0.509,0.507c-0.278,0-0.507-0.227-0.507-0.507
		c0-0.28,0.229-0.507,0.507-0.507C6.809,2.922,7.037,3.149,7.037,3.429"/>
	<path clip-path="url(#SVGID_2_)" fill="#929293" d="M3.015,3.429c0,0.28-0.227,0.507-0.507,0.507S2.001,3.709,2.001,3.429
		c0-0.28,0.227-0.507,0.507-0.507S3.015,3.149,3.015,3.429"/>
	<path clip-path="url(#SVGID_2_)" fill="#929293" d="M9.006,6.752c-0.03-0.021-1.151,0.461-1.578,1.201
		C7.404,7.991,7.725,8.01,7.973,8.019C7.554,8.448,6.91,9.267,5.802,9.039C5.325,8.94,5.029,8.586,5.011,8.127H4.026
		C4.009,8.586,3.711,8.94,3.236,9.039c-1.108,0.228-1.751-0.591-2.17-1.021C1.314,8.01,1.633,7.991,1.609,7.953
		c-0.425-0.74-1.547-1.222-1.578-1.201C0,6.772-0.092,8.006,0.315,8.713C0.334,8.747,0.518,8.46,0.648,8.247
		c0.274,0.651,1.216,1.826,2.658,2.338c0.86,0.306,1.207,0.894,1.213,0.903c0.006-0.01,0.351-0.598,1.212-0.903
		c1.442-0.512,2.383-1.687,2.659-2.338c0.13,0.213,0.312,0.5,0.332,0.466C9.131,8.006,9.038,6.772,9.006,6.752"/>
</g>
</svg>