<svg version="1.1" id="Layer_1" xmlns="http://www.w3.org/2000/svg" xmlns:xlink="http://www.w3.org/1999/xlink" x="0px" y="0px" viewBox="0 0 388.271 109.259" enable-background="new 0 0 388.271 109.259" xml:space="preserve">
<g>
	<g>
		<g>
			<g>
				<path d="M67.397,90.115c-5.031,3.695-12.117,5.201-20.234,5.201H14.925V15.548H41.79
					c7.202,0,14.175,0.581,19.433,3.356c5.261,2.772,10.06,7.977,10.06,16.761c0,8.785-5.602,15.49-11.544,17.571v0.231
					c9.831,2.428,16.347,9.132,16.347,18.957C76.084,81.21,72.426,86.416,67.397,90.115z M49.22,31.042
					c-2.172-1.388-4.229-1.621-8.232-1.621h-7.66v18.381h7.203c4.115,0,6.517-0.231,8.688-1.732c2.287-1.621,3.888-3.7,3.888-7.631
					C53.108,34.626,51.507,32.43,49.22,31.042z M53.334,62.951c-2.743-1.969-5.831-2.199-9.831-2.199H33.328v20.348h10.175
					c4,0,7.088-0.234,9.831-2.199c2.744-1.85,4.002-4.508,4.002-7.975C57.336,67.341,56.079,64.912,53.334,62.951z"></path>
				<path d="M100.61,95.316H82.092V15.548h18.519V95.316z"></path>
				<path d="M243.09,95.316h-52.131V15.548h51.101v14.913h-32.693v16.303h30.868v14.913h-30.868v18.494h33.724
					V95.316z"></path>
				<path d="M319.45,15.548l-27.438,47.518v32.25h-18.516v-32.25l-27.436-47.518h20.574l16.119,31.792l16.117-31.792
					H319.45z"></path>
				<path d="M376.079,95.316h-52.128V15.548h51.101v14.913h-32.697v16.303h30.868v14.913h-30.868v18.494h33.725
					V95.316z"></path>
			</g>
		</g>
		<path d="M152.873,50.397l-5.329,14.217h17.492v11.792c0,0-3.656,5.086-16.461,5.086
			c-12.801,0-22.862-9.367-22.862-25.549c0-16.183,9.83-25.543,22.518-25.543c10.748,0,16.92,5.431,20.235,9.132l12.232-10.754
			c-2.513-2.776-11.545-13.872-32.467-13.872c-22.062,0-41.268,14.45-41.268,41.038c0,26.59,19.206,41.155,41.042,41.155
			c21.718,0,31.094-10.059,35.093-13.639V50.397H152.873z"></path>
	</g>
</g>
</svg>