<svg version="1.1" id="Layer_1" xmlns="http://www.w3.org/2000/svg" xmlns:xlink="http://www.w3.org/1999/xlink" x="0px" y="0px" viewBox="0 0 692.857 432.143" enable-background="new 0 0 692.857 432.143" xml:space="preserve">
<path d="M70.353,215.016c-21.961,0.563-46.551,1.285-65.189,12.919c-2.049,1.711-2.204,3.765-1.47,5.778
	c7.964,6.544,18.385,7.391,28.07,9.428c13.727,2.173,24.996,0.159,38.897,1.745C70.081,233.874,71.938,224.74,70.353,215.016z
	 M187.099,215.738H75.554l-0.289,28.88l111.931,0.076C187.157,235.576,187.121,225.418,187.099,215.738z M622.655,243.585
	c-6.628-3.328-14.17-9.561-13.86-17.856c4.624-15.795,22.1-19.712,33.968-27.856c14.327-7.374,28.94-14.336,43.692-20.871
	l1.141-1.753c-2.011-4.79-2.879-9.848-5.92-14.218c-37.31,11.172-70.85,31.774-104.527,51.771
	c-5.798,4.522-14.767,1.754-22.152,2.509v29.576l18.674,0.428c21.825,5.822,40.619,18.741,61.15,27.43
	c16.063,6.25,31.954,12.919,48.872,17.146c2.299-5.234,4.906-10.184,6.202-15.686C667.063,265.062,644.366,255.346,622.655,243.585z
	 M480.449,223.087c10.537,3.573,22.081,9.948,28.42,21.799h42.685l-0.446-29.148h-61.01
	C487.254,218.548,484.043,221.016,480.449,223.087z M387.366,163.069c7.538,2.449,7.692,10.434,8.677,16.684l-0.426,102.126
	l-1.737,12.497c-4.176,9.137-15.174,7.676-23.548,9.698l0.427,7.408h90.785c11.713-1.318,23.004-3.341,31.662-11.618
	c12.588-11.159,16.667-28.404,13.456-44.812c-5.489-21.18-27.896-27.872-46.415-30.607c10.999-2.351,21.402-6.828,29.057-16.391
	c7.54-10.033,7.828-26.709,1.451-37.303c-7.658-13.211-22.117-17.54-36.715-17.691l-84.015-0.428v9.118
	C374.488,161.189,381.586,162.641,387.366,163.069z M489.031,249.821c6.496,15.978,4.041,36.581-8.971,48.743
	c-5.644,4.638-12.272,6.692-19.503,7.254c13.418-6.809,22.696-21.028,22.984-36.101c0.85-16.407-7.519-31.5-21.998-39.047
	C473.123,231.257,484.547,238.796,489.031,249.821z M476.599,174.536c5.05,8.555,4.758,21.475,0.582,30.315
	c-3.035,6.366-9.701,11.315-15.91,13.623c9.532-9.706,12.875-23.63,9.685-36.976c-2.164-8.573-8.542-16.969-16.625-21.457
	C463.282,161.189,471.81,166.139,476.599,174.536z M426.281,163.807c4.621-5.393,12.432-4.077,19.079-3.767
	c8.392,1.149,16.917,7.375,20.376,15.661c4.64,12.893,4.218,27.119-4.735,37.571c-10.266,9.58-24.187,9.117-38.643,8.261
	C423.11,201.671,420.363,181.498,426.281,163.807z M422.358,245.314v-15.356c20.974-1.906,45.543,0.268,55.25,21.915
	c4.911,12.61,3.459,28.279-4.485,39.007c-7.5,9.296-18.367,14.527-30.219,13.623c-5.934-0.143-11.85-2.316-17.801-3.475
	c-2.884-17.111-2.884-35.538-2.745-53.968C422.276,247.22,422.358,246.053,422.358,245.314z M402.559,161.325l2.896,4.504
	l0.582,49.482l-0.29,70.352c0.562,5.645-0.867,11.307-3.768,15.944c-2.881,1.746-6.496,4.077-10.112,2.191
	c2.164-2.191,7.812-5.796,7.231-10.451l1.143-81.819l-0.718-42.796c-0.713-3.489-2.165-7.114-5.645-9.151
	C397.068,159.73,400.394,159.285,402.559,161.325z M346.745,302.346c-7.072-2.602-9.104-10.434-10.399-16.969
	c-2.319-32.807-1.452-58.918-0.736-91.7c0.292-8.689,0.582-17.549,3.926-24.946c3.018-8.691,13.283-6.518,19.641-7.407l0.428-8.263
	h-74.567v7.256c6.79,1.007,13.846,1.142,19.332,5.511c3.365,3.758,3.483,8.841,4.197,13.656
	c-0.544,16.675,1.024,29.443-0.288,44.223l-88.891,0.268l-0.599-0.695c0.599-18.27-1.876-37.865,3.478-54.272
	c4.486-9.855,14.016-7.255,21.828-7.976c-0.118-3.331,0.29-6.686-0.426-9.714h-76.903v9c4.891,0.714,12.854,1.007,18.346,3.759
	c5.2,2.063,5.488,8.127,6.513,12.205l0.427,101.389l-1.452,14.956c-2.881,11.315-15.909,8.402-24.28,11.877l0.446,6.98h76.609
	l-0.307-7.685c-8.082-0.713-17.34-0.445-21.243-8.706c-5.627-18.121-2.011-40.19-3.036-60.212h89.778
	c-0.544,19.597,1.451,40.196-1.723,58.734c-4.037,9.898-16.042,8.304-24.569,10.888c-0.156,2.767,0.287,4.513,0.287,6.535
	l78.78-0.271l-0.426-6.969L346.745,302.346z M201.019,292.902c-0.752,3.782-1.024,7.698-3.75,10.451
	c-3.188,2.331-6.244,3.181-10.147,2.465c2.453-2.893,7.248-6.225,7.38-11.174l1.028-72.371l-1.45-54.272
	c-0.869-2.6-2.341-5.083-4.776-6.676c2.59,0,6.803-0.714,9.242,2.482c4.059,4.924,2.473,13.614,2.92,18.857L201.019,292.902z
	 M317.556,294.376c-0.873,4.481-2.031,9.983-7.252,11.441c-1.739,1.184-4.618,0.872-6.65,0.428
	c6.65-4.639,8.101-11.869,7.676-19.576c1.023-40.188,0.579-76.308-0.29-116.923c-0.736-3.188-2.591-5.67-5.2-7.994
	c3.461-0.427,6.512,0.311,8.971,2.055l2.453,3.766l1.007,26.842L317.556,294.376z"/>
<g>
	<path d="M262.824,12.778c1.893-0.16,4.352-1.283,5.914,0c3.039,12.34,4.079,25.392,5.936,38.309
		c-1.002,1.611-2.741,1.904-4.463,1.745c-2.322-0.595-1.894,2.332-1.472,3.473l43.096-5.931l-1.743-17.849h-2.88
		c-0.716,5.804-2.627,12.029-7.963,15.09c-3.886,1.006-8.079,3.767-12.43,1.728c-3.327-11.894-3.327-25.08-5.648-37.285l1.473-1.72
		c1.872-0.738,4.037-0.873,5.487-1.754l-0.577-2.457c-8.393,1.141-16.917,1.745-25,3.472
		C262.668,10.606,262.242,11.923,262.824,12.778z"/>
	<path d="M327.027,22.517l2.748-16.39c-0.157-3.633-6.382-3.633-6.518,0l2.745,16.39H327.027z"/>
	<path d="M553.603,105.635l6.938-45.84l-4.234-2.483c-12.543,8.421-24.725,18-37.692,25.415c-2.614,1.746-7.388-2.482-7.388,2.735
		c5.487,2.776,10.382,7.407,15.6,9.445c4.33-3.917-4.192-4.21-2.742-8.422c0.887-2.751,3.903-4.655,6.226-5.813l14.302,9.001
		c-1.003,3.329-0.848,7.112-2.476,10.158c-2.009,0.587-2.995-1.292-4.89-1.452c-0.442,0.873-1.74,1.452-1.295,2.776
		c6.072,3.759,12.275,7.366,18.346,11.132C558.205,109.846,552.867,108.68,553.603,105.635z M545.347,84.472l-10.862-6.267
		l13.162-9.428C547.358,74.154,545.618,78.961,545.347,84.472z"/>
	<path d="M591.008,145.404l12.607-9.722c8.078-0.89,15.753-2.777,24.282-2.482c2.741-0.429,5.354,6.517,7.23,1.03l-10.713-14.956
		c-1.297,0-2.165,1.611-2.726,2.03c1.024,1.594,2.726,2.911,2.011,5.218c-4.332,4.505-11.251,3.188-16.622,3.926
		c2.606-5.806,3.034-12.927,7.652-17.406l3.75,2.734c0.601-0.695,1.759-1.434,1.759-2.013l-13.879-18.588l-2.457,2.172
		c0.736,1.031,1.586,2.063,1.723,3.498c-6.053,11.013-4.624,27.12-18.638,33.091c-2.896,5.352-6.785-0.898-8.68-2.91
		c-0.713,0.855-2.302,1.165-2.186,2.482l14.885,20.131C599.285,153.079,588.555,148.734,591.008,145.404z"/>
	<path d="M368.36,7.578c3.461,1.283,7.364,3.917,8.991,7.523c2.879,2.466,1.141,9.882,6.63,8.129l0.292-17.103
		c-2.745-1.183-3.772,1.877-5.935,2.457c-5.921-4.655-15.466-6.09-22.543-2.75c-3.035,1.878-6.362,5.083-6.96,8.69
		c-3.889,17.851,17.515,17.574,26.777,25.391c1.002,2.038,1.002,4.076,0.266,6.224c-0.866,2.642-3.613,3.784-5.779,4.505
		c-7.654,1.299-13.744-3.917-17.051-10.007c-3.036-2.308-0.133-9.428-5.936-8.111c-0.868,5.645-1.158,13.052-1.022,18.856
		c3.034,1.878,4.35-2.601,6.958-2.76c6.224,5.511,14.596,6.25,22.564,4.211c6.474-2.617,8.969-9.429,8.66-16.114
		c-1.589-15.946-20.105-11.315-27.476-21.617c-0.288-2.013,0.428-4.495,2.166-6.24C361.437,6.839,365.614,7,368.36,7.578z"/>
	<path d="M62.988,128.275l26.756,22.346c5.216,1.744,0.288,5.797-0.699,8.262l2.727,1.452l15.62-19.142
		c-3.462-5.804-4.174,3.332-7.962,2.039l-12.88-11.467l11.136-12.917l12.878,11.171c0.869,2.307-1.584,4.052-2.9,5.931
		c1.023,0.738,1.625,2.172,2.9,2.039c5.2-6.383,10.708-12.625,15.622-19.141c-3.462-5.084-3.906,2.323-7.387,2.172L92.778,99.411
		c-5.2-1.904-2.591-6.409-0.292-9c-0.714-0.738-1.431-1.595-2.454-1.754l-15.6,19.15c0.716,0.873,1.74,1.142,2.455,2.039
		c1.584-1.459,2.318-4.345,4.772-4.211c4.176,3.49,8.814,6.963,12.143,10.88L82.801,129.28L70.68,118.553
		c0.292-2.189,1.743-3.9,3.039-5.511l-2.496-2.172c-5.199,6.518-11.252,12.9-15.582,19.578c0.697,0.579,1.294,1.435,2.165,1.744
		C59.527,130.867,60.417,128.275,62.988,128.275z"/>
	<path d="M199.339,31.518l11.152,36.27c-0.886,2.45-3.924,2.308-5.932,3.457c0.422,0.873,0.422,2.323,1.448,2.776l40.91-12.926
		l-4.177-16.969c-5.934-0.856-1.626,7.122-3.771,10.007c-1.449,4.79-6.67,7.835-10.847,9.428c-2.011,0.604-4.773,2.056-6.512,0
		c-4.042-11.885-7.504-23.94-10.422-36.271c1.606-1.887,3.926-2.307,6.224-3.028c-0.288-1.032-1.002-1.745-0.714-2.777
		c-8.66,1.327-16.2,5.218-24.569,7.256C191.101,35.862,196.747,28.029,199.339,31.518z"/>
	<path d="M128.212,65.305c7.812,10.594,13.903,22.504,20.088,34.106c-0.852,2.189-3.172,2.592-4.777,3.917l1.297,2.735
		c12.761-6.963,25.171-14.646,37.912-21.901l-7.675-15.678c-1.14,0.293-2.167,0.586-3.172,1.325
		c1.45,3.489,1.722,7.835,1.163,11.886c-2.342,5.511-8.122,9.873-13.611,11.45c-4.641-4.034-6.788-10.268-9.686-15.662
		c2.166-1.585,5.045-2.751,7.942-1.719c2.748,0.134,4.507,7.39,7.658,2.734l-10.806-18.704c-5.219,1.148,0.695,6.097-1.742,9.737
		c-0.886,2.172-3.189,3.766-5.216,4.488l-6.207-10.754c-1.024-1.744-2.475-4.907,0.404-5.955c4.506-3.021,10.865-6.065,16.22-2.736
		c3.459,0,5.608,8.557,9.087,3.474l-9.087-14.353L121.583,65.02v0.596C122.724,70.656,125.914,65.02,128.212,65.305z"/>
	<path d="M352.779,384.549h3.054c1.585,0.16,2.591,1.906,2.745,3.498c-1.738,7.527-4.351,15.359-7.251,22.188
		c-2.992-7.835-4.908-16.096-6.918-24.359c0.56-1.595,2.182-1.906,3.749-1.755c0-1.023,0.428-2.324-0.271-3.043h-18.831
		c-0.422,2.735,0.735,3.043,2.923,3.765c6.922,8.397,0.425,18.136-2.188,26.111c-2.473-7.388-4.756-14.804-7.21-22.328
		c-1.311-2.465,0.426-5.659,3.035-4.812v-3.181l-19.368-0.312v3.492c1.413-0.111,2.589,0.156,3.459,1.029l14.171,43.822h4.196
		l9.392-26.131c3.172,8.705,4.778,17.868,7.929,26.556h4.235l13.588-40.036c0.849-2.02,2.593-4.639,5.474-4.211v-3.488h-15.912
		V384.549z"/>
	<path d="M603.945,308.98c-13.187-13.076-23.276,6.09-35.729,7.257c-1.872-0.312-3.904-2.333-4.191-4.228
		c-0.294-2.316,0.442-5.199,2.181-7.254c2.593-3.919,6.479-4.908,10.693-5.202c4.794-1.318,10.691,4.21,12.874-0.739
		c-5.082-1.007-15.039-20.44-14.906-3.782c-7.676,2.19-15.017,9.872-15.619,18.162c0,5.057,3.173,10.719,8.255,13.187
		c3.44,1.876,8.08,0.869,11.429-0.445c8.521-1.729,16.895-17.851,25.015-6.25c1.275,3.648-0.579,6.695-2.477,9.427
		c-3.904,4.521-9.687,5.822-15.602,4.949c-3.479,0.713-7.964-4.638-9.991,0.294c4.615,3.76,9.411,8.572,14.595,11.903
		c2.475-1.745,0.288-4.228,1.022-6.669c0.155-1.742,2.028-0.89,3.036-1.475c7.366-3.341,14.307-10.126,14.307-18.697
		C608.411,315.498,607.386,311.733,603.945,308.98z"/>
	<path d="M563.73,359.008l-26.733-13.907c2.01-7.414,2.452-16.257,8.948-21.188l-1.296-2.482
		c-6.512,3.361-13.029,7.12-18.788,11.482l1.429,2.173c0.854,0,1.628-0.73,2.475-1.024c1.009-0.872,3.327-1.46,4.043,0.294
		c0,7.114-2.476,14.956-3.75,22.347l-1.024,1.317c-3.46-5.511-6.921-11.039-9.419-16.995c1.026-1.862,2.94-2.909,4.509-3.916
		l-1.744-2.753l-20.818,12.919c0.89,5.645,4.638-0.428,7.367,0.285c7.228,10.595,13.185,21.901,19.681,32.763
		c-0.464,2.646-3.329,2.646-4.759,4.521c0.987,0.562,0.87,1.612,1.296,2.468c7.21-4.213,14.578-7.979,21.536-12.607l-2.032-2.776
		c-1.738,0.87-3.033,2.776-5.2,2.465l-6.938-10.442c0.58-2.482,0.58-5.503,2.011-7.248c6.224,2.441,12.005,5.93,17.785,9.712
		c-1.003,1.318-2.32,3.047-3.888,3.492c-0.574,1.3,1.143,1.591,1.009,2.734c7.074-3.607,13.726-7.835,20.531-11.871
		C569.246,356.274,566.631,359.602,563.73,359.008z"/>
	<path d="M220.218,408.491l-4.214-45.993c-1.005-1.141-2.744-1.88-4.489-2.014c-10.4,10.722-20.083,23.638-31.219,34.081
		c-2.05,1.586-6.786-0.562-5.916,3.919l17.337,5.502c0.161-1.158,1.298-2.307,0.448-3.488c-1.915-0.579-3.615-1.435-4.911-3.181
		c0-3.177,2.147-5.938,4.463-7.992c5.36,2.054,11.409,2.775,16.048,5.971c-0.423,4.195,1.162,5.938-0.423,9.706
		c-1.743,0.309-3.208-0.428-4.777-0.704l-0.714,2.893c6.476,2.173,13.588,5.377,20.377,6.535
		C224.683,410.955,221.066,410.812,220.218,408.491z M195.179,385.565L205.6,373.67l1.009,15.654
		C202.72,388.469,198.95,386.883,195.179,385.565z M151.529,332.601c-9.686-1.583-18.656,1.611-24.725,9.43
		c-4.623,6.986-7.212,17.571-3.037,25.701c3.751,7.818,11.25,12.046,19.079,13.908c8.527,0.896,17.497-1.435,22.564-9
		c5.044-7.835,7.792-17.266,3.477-26.382C165.7,338.851,157.87,335.513,151.529,332.601z M157.021,361.467
		c-3.755,5.24-7.099,12.069-13.456,14.671c-3.462,1.158-6.652-0.588-9.381-2.022c-3.611-2.619-3.477-7.408-2.761-10.864
		c3.48-9.736,9.125-20.909,19.389-25.404c3.596-0.858,5.761,1.449,8.373,3.177C164.674,347.408,159.341,355.375,157.021,361.467z
		 M93.533,284.615c-5.181,2.732,2.473,4.344,2.047,7.222c-8.252,9.312-17.941,19.451-27.759,27.581
		c-2.611,0.428-5.375-7.97-6.942-1.479c6.207,5.822,11.272,12.357,17.343,17.44c5.199,5.374,12.298,12.18,20.243,9.428
		c2.88-1.595,5.76-4.054,6.938-7.257c1.297-5.368-2.031-9.989-3.886-13.905c3.577,2.29,7.923,3.916,12.548,2.735
		c3.771-1.746,6.512-5.662,6.512-9.716C117.541,303.469,102.793,294.47,93.533,284.615z M96.72,329.423
		c-1.45,3.178-4.752,6.25-8.1,6.963c-4.907,0.451-8.796-4.067-10.981-7.97c2.458-5.528,7.792-7.97,11.717-12.919
		C92.817,319.569,99.179,323.182,96.72,329.423z M110.176,314.491c-2.026,2.753-4.774,4.071-7.691,4.927
		c-3.733,0-6.788-4.054-9.958-6.678l11.153-11.444c3.173-0.308,5.338,3.341,6.921,5.515
		C112.496,308.98,111.316,312.428,110.176,314.491z M493.867,68.082c2.05-2.928,2.32-7.406,1.158-10.77
		c-1.873-4.052-6.068-6.669-9.819-8.413c4.642-0.589,9.686,0.31,12.874-3.457c2.284-2.768,2.997-6.668,2.145-10.477
		c-1.156-3.019-4.483-4.907-6.938-6.936l-31.955-10.462l-1.433,3.205c2.031,0.712,4.777,0.873,5.936,3.02
		c-3.345,12.65-6.96,25.107-11.463,37.303c-2.57,0.873-4.157-1.451-6.186-0.713l-0.427,2.885l28.169,8.716
		C481.858,72.695,490.097,74.02,493.867,68.082z M478.263,27.29c4.331,0.579,9.107,1.745,10.826,5.931
		c0,4.538-0.715,9.454-4.907,11.483c-3.908,1.166-7.657-0.31-11.136-1.3C473.917,38.463,475.5,32.229,478.263,27.29z M467.283,60.81
		l4.04-13.195c4.776,0.855,10.112,1.728,12.566,6.518c0.87,3.917,0.134,7.835-2.145,10.888c-2.051,2.767-5.817,2.616-8.99,2.029
		C470.28,65.892,464.364,65.616,467.283,60.81z M504.305,390.354c-0.427-1.148,0-4.192-1.723-4.789
		c-4.907-0.276-0.442,4.068-1.311,5.971c-0.273,1.438-2.033,2.738-3.463,1.705c-4.197-5.93-8.101-14.505-17.071-13.344
		c4.175-1.865,9.397-5.505,9.397-10.704c0.309-3.355-0.854-6.829-3.479-9.428c-2.592-2.333-6.054-2.645-9.669-2.484
		c-11.85,2.618-22.697,7.524-33.986,11.601c-0.736,6.669,4.641,0,7.232,2.014c4.639,11.484,8.814,23.245,12.431,35.113
		c0.153,2.927-3.173,3.203-5.2,3.916c0.735,0.888,0,2.331,1.157,3.062l23.123-8.688l-1.274-2.77
		c-2.187,0.579-4.505,2.458-6.672,0.713l-5.491-16.364c13.438-10.597,12.876,10.861,20.825,14.93
		c4.479,1.301,8.677-0.594,12.14-2.768C502.991,395.882,504.615,393.401,504.305,390.354z M478.728,375.417
		c-2.898,3.916-7.228,5.377-11.425,6.651c-2.165-4.771-4.331-10.141-5.2-15.654c4.892-2.304,13.569-6.515,16.181,1.746
		C479.582,370.2,479.153,373.243,478.728,375.417z M416.248,374.704c-10.248-1.595-20.957,0.419-27.451,9.11
		c-4.331,6.54-5.356,16.256-2.769,23.938c2.342,7.551,9.124,12.919,16.356,15.092c10.245,2.171,20.224-1.166,26.756-9.857
		c4.89-7.114,5.339-18.421,1.008-26.103C427.961,381.218,421.91,376.29,416.248,374.704z M418.719,415.16
		c-2.01,2.758-5.061,4.504-8.679,4.192c-9.533-1.123-10.403-12.028-12.584-19.14c-0.426-6.369-1.723-14.496,3.189-19.891
		c3.461-2.29,9.551-3.445,12.873,0.312C419.861,390.22,422.358,403.567,418.719,415.16z"/>
	<path d="M247.224,389.054c0.869,0.151,1.895-0.294,2.475,0.271c2.453-3.92,3.905-9.547,8.971-12.165
		c2.3-0.445,5.914-0.87,6.629,1.745l-5.915,34.509l-1.739,3.497c-1.738,0.271-3.152-0.428-4.777-0.736
		c-0.87,1.007-1.312,2.055-1.158,3.489c7.984,1.317,15.774,2.615,23.738,3.765l0.986-2.758c-2.01-1.167-5.607-0.134-6.203-3.029
		l5.76-34.249c0.308-2.174,2.608-5.084,4.949-3.495c2.725,0.896,4.774,3.806,5.489,6.398c2.456,3.029-0.87,10.283,4.196,10.442
		l1.723-17.833c-13.748-2.308-27.322-5.101-41.218-6.978L247.224,389.054z"/>
</g>
</svg>
